<svg xmlns="http://www.w3.org/2000/svg" xmlns:xlink="http://www.w3.org/1999/xlink" width="2000" zoomAndPan="magnify" viewBox="0 0 1500 1499.999933" height="2000" preserveAspectRatio="xMidYMid meet" version="1.0"><defs><clipPath id="66b3dc0922"><path d="M 125.785156 125.785156 L 1374.214844 125.785156 L 1374.214844 1374.214844 L 125.785156 1374.214844 Z M 125.785156 125.785156 " clip-rule="nonzero"/></clipPath><clipPath id="2ce75e04e8"><path d="M 750 125.785156 C 405.257812 125.785156 125.785156 405.253906 125.785156 750 C 125.785156 1094.742188 405.257812 1374.214844 750 1374.214844 C 1094.742188 1374.214844 1374.214844 1094.742188 1374.214844 750 C 1374.214844 405.253906 1094.742188 125.785156 750 125.785156 Z M 750 125.785156 " clip-rule="nonzero"/></clipPath><clipPath id="336ffc0b2b"><path d="M 0.785156 0.785156 L 1249.214844 0.785156 L 1249.214844 1249.214844 L 0.785156 1249.214844 Z M 0.785156 0.785156 " clip-rule="nonzero"/></clipPath><clipPath id="8870cf08b8"><path d="M 625 0.785156 C 280.257812 0.785156 0.785156 280.253906 0.785156 625 C 0.785156 969.742188 280.257812 1249.214844 625 1249.214844 C 969.742188 1249.214844 1249.214844 969.742188 1249.214844 625 C 1249.214844 280.253906 969.742188 0.785156 625 0.785156 Z M 625 0.785156 " clip-rule="nonzero"/></clipPath><clipPath id="de230871ed"><rect x="0" width="1250" y="0" height="1250"/></clipPath><clipPath id="5584321d03"><path d="M 186.667969 186.667969 L 1313.332031 186.667969 L 1313.332031 1313.332031 L 186.667969 1313.332031 Z M 186.667969 186.667969 " clip-rule="nonzero"/></clipPath><clipPath id="45461fb034"><path d="M 750 186.667969 C 438.878906 186.667969 186.667969 438.878906 186.667969 750 C 186.667969 1061.121094 438.878906 1313.332031 750 1313.332031 C 1061.121094 1313.332031 1313.332031 1061.121094 1313.332031 750 C 1313.332031 438.878906 1061.121094 186.667969 750 186.667969 Z M 750 186.667969 " clip-rule="nonzero"/></clipPath><clipPath id="bb715afac8"><path d="M 0.667969 0.667969 L 1127.332031 0.667969 L 1127.332031 1127.332031 L 0.667969 1127.332031 Z M 0.667969 0.667969 " clip-rule="nonzero"/></clipPath><clipPath id="5a8a0999d5"><path d="M 564 0.667969 C 252.878906 0.667969 0.667969 252.878906 0.667969 564 C 0.667969 875.121094 252.878906 1127.332031 564 1127.332031 C 875.121094 1127.332031 1127.332031 875.121094 1127.332031 564 C 1127.332031 252.878906 875.121094 0.667969 564 0.667969 Z M 564 0.667969 " clip-rule="nonzero"/></clipPath><clipPath id="0a7c4dbc20"><rect x="0" width="1128" y="0" height="1128"/></clipPath><clipPath id="baf2ad8fbc"><path d="M 501 353.363281 L 999 353.363281 L 999 859 L 501 859 Z M 501 353.363281 " clip-rule="nonzero"/></clipPath><clipPath id="d416fc3b0e"><path d="M 418 877 L 1082 877 L 1082 1146.863281 L 418 1146.863281 Z M 418 877 " clip-rule="nonzero"/></clipPath></defs><g clip-path="url(#66b3dc0922)"><g clip-path="url(#2ce75e04e8)"><g transform="matrix(1, 0, 0, 1, 125, 125)"><g clip-path="url(#de230871ed)"><g clip-path="url(#336ffc0b2b)"><g clip-path="url(#8870cf08b8)"><path fill="#262f3c" d="M 0.785156 0.785156 L 1249.214844 0.785156 L 1249.214844 1249.214844 L 0.785156 1249.214844 Z M 0.785156 0.785156 " fill-opacity="1" fill-rule="nonzero"/></g></g></g></g></g></g><g clip-path="url(#5584321d03)"><g clip-path="url(#45461fb034)"><g transform="matrix(1, 0, 0, 1, 186, 186)"><g clip-path="url(#0a7c4dbc20)"><g clip-path="url(#bb715afac8)"><g clip-path="url(#5a8a0999d5)"><path fill="#fab635" d="M 0.667969 0.667969 L 1127.332031 0.667969 L 1127.332031 1127.332031 L 0.667969 1127.332031 Z M 0.667969 0.667969 " fill-opacity="1" fill-rule="nonzero"/></g></g></g></g></g></g><g clip-path="url(#baf2ad8fbc)"><path fill="#ffffff" d="M 807.226562 444.226562 L 807.226562 411.003906 C 807.226562 395.210938 800.746094 380.972656 790.480469 370.570312 C 780.121094 360.210938 765.789062 353.867188 750.046875 353.867188 C 718.417969 353.867188 692.816406 379.46875 692.816406 411.003906 L 692.816406 444.226562 C 583.246094 470.011719 501.738281 568.355469 501.738281 685.824219 L 501.738281 858.738281 L 998.261719 858.738281 L 998.261719 685.824219 C 998.261719 617.277344 970.46875 555.214844 925.515625 510.261719 C 893.480469 478.179688 852.816406 454.949219 807.183594 444.226562 " fill-opacity="1" fill-rule="nonzero"/></g><g clip-path="url(#d416fc3b0e)"><path fill="#ffffff" d="M 1075.15625 953.070312 C 1070.820312 943.441406 1064.339844 934.722656 1056.171875 927.605469 L 998.261719 877.402344 L 501.738281 877.402344 L 443.828125 927.605469 C 427.445312 941.84375 418.089844 962.425781 418.089844 984.101562 C 418.089844 1004.683594 426.441406 1023.347656 439.992188 1036.8125 C 453.457031 1050.363281 472.121094 1058.761719 492.703125 1058.761719 L 662.148438 1058.761719 L 662.148438 1059.445312 C 662.148438 1108.003906 701.488281 1147.296875 750.046875 1147.296875 C 798.554688 1147.296875 837.894531 1108.003906 837.894531 1059.445312 L 837.894531 1058.761719 L 1007.296875 1058.761719 C 1048.550781 1058.761719 1081.910156 1025.265625 1081.910156 984.101562 C 1081.910156 973.195312 1079.582031 962.699219 1075.15625 953.070312 " fill-opacity="1" fill-rule="nonzero"/></g></svg>